<svg xmlns="http://www.w3.org/2000/svg" viewBox="0 0 192 192" width="192" height="192">
  <!-- Fondo blanco con bordes redondeados -->
  <rect width="192" height="192" rx="38" ry="38" fill="#ffffff"/>
  
  <!-- Sombra suave del fondo -->
  <rect width="192" height="192" rx="38" ry="38" fill="none" stroke="#e8e0d8" stroke-width="2"/>

  <!-- Taza de café - cuerpo principal -->
  <path d="M 48 75 L 52 140 Q 53 148 61 148 L 131 148 Q 139 148 140 140 L 144 75 Z" fill="#6B3A1F"/>
  
  <!-- Taza - borde superior -->
  <rect x="44" y="68" width="104" height="14" rx="7" fill="#8B4513"/>
  
  <!-- Taza - brillo interior -->
  <path d="M 55 82 L 58 135 Q 59 142 64 142 L 128 142 Q 133 142 134 135 L 137 82 Z" fill="#7B3B15"/>

  <!-- Asa de la taza -->
  <path d="M 144 88 Q 168 88 168 108 Q 168 128 144 128" fill="none" stroke="#8B4513" stroke-width="11" stroke-linecap="round"/>
  <path d="M 144 88 Q 162 88 162 108 Q 162 128 144 128" fill="none" stroke="#6B3A1F" stroke-width="6" stroke-linecap="round"/>

  <!-- Vapor / humo 1 -->
  <path d="M 72 58 Q 68 50 72 42 Q 76 34 72 26" fill="none" stroke="#C8956A" stroke-width="4" stroke-linecap="round"/>
  <!-- Vapor / humo 2 -->
  <path d="M 96 55 Q 92 47 96 39 Q 100 31 96 23" fill="none" stroke="#C8956A" stroke-width="4" stroke-linecap="round"/>
  <!-- Vapor / humo 3 -->
  <path d="M 120 58 Q 116 50 120 42 Q 124 34 120 26" fill="none" stroke="#C8956A" stroke-width="4" stroke-linecap="round"/>

  <!-- Café dentro de la taza (líquido) -->
  <ellipse cx="96" cy="84" rx="44" ry="8" fill="#3D1A00" opacity="0.6"/>

  <!-- Texto LC28 -->
  <text x="96" y="132" font-family="Arial, Helvetica, sans-serif" font-size="22" font-weight="bold" fill="#F5E6C8" text-anchor="middle" letter-spacing="1">LC28</text>

  <!-- Platillo -->
  <ellipse cx="96" cy="151" rx="58" ry="8" fill="#8B4513"/>
  <ellipse cx="96" cy="151" rx="52" ry="5.5" fill="#A0522D"/>
</svg>
